# xmcd CD database file
#
# Track frame offsets:
#	150
#	24670
#	41267
#	63395
#	87792
#	106250
#	138630
#	166850
#	186987
#	204512
#	228270
#
# Disc length: 3358 seconds
#
# Revision: 1
# Processed by: cddbd v1.5.2PL0 Copyright (c) Steve Scherf et al.
# Submitted via: CDex 1.85
#
DISCID=8b0d1c0b
DTITLE=Kay Lynch - Unconditional
DYEAR=2003
DGENRE=New Age
TTITLE0=Unconditional
TTITLE1=Pia Yesu
TTITLE2=Ave Maria
TTITLE3=Vacalese
TTITLE4=Requem
TTITLE5=Lakme
TTITLE6=Drems
TTITLE7=Du Bist De Ruh
TTITLE8=Believe Me
TTITLE9=High Queen
TTITLE10=Serenity
EXTD=YEAR: 2003
EXTT0=
EXTT1=
EXTT2=
EXTT3=
EXTT4=
EXTT5=
EXTT6=
EXTT7=
EXTT8=
EXTT9=
EXTT10=
PLAYORDER=
